<?xml version="1.0" encoding="UTF-8" standalone="no"?>
<!-- Generator: Adobe Illustrator 25.1.0, SVG Export Plug-In . SVG Version: 6.00 Build 0)  -->

<svg
   width="3415.6"
   height="776.4"
   version="1.1"
   viewBox="0 0 3415.6 776.4"
   xml:space="preserve"
   id="svg31"
   sodipodi:docname="7800.svg"
   inkscape:version="1.2 (dc2aeda, 2022-05-15)"
   xmlns:inkscape="http://www.inkscape.org/namespaces/inkscape"
   xmlns:sodipodi="http://sodipodi.sourceforge.net/DTD/sodipodi-0.dtd"
   xmlns="http://www.w3.org/2000/svg"
   xmlns:svg="http://www.w3.org/2000/svg"><defs
   id="defs35" /><sodipodi:namedview
   id="namedview33"
   pagecolor="#ffffff"
   bordercolor="#666666"
   borderopacity="1.0"
   inkscape:showpageshadow="2"
   inkscape:pageopacity="0.0"
   inkscape:pagecheckerboard="0"
   inkscape:deskcolor="#d1d1d1"
   showgrid="false"
   showguides="false"
   inkscape:zoom="0.24645277"
   inkscape:cx="1091.487"
   inkscape:cy="355.0376"
   inkscape:window-width="1728"
   inkscape:window-height="1051"
   inkscape:window-x="0"
   inkscape:window-y="38"
   inkscape:window-maximized="1"
   inkscape:current-layer="svg31" />
<style
   type="text/css"
   id="style9">
	.st0{fill:#FFFFFF;}
</style>
<g
   transform="matrix(0.99999988,0,0,0.9994848,-441.33547,-3.2881357)"
   id="g29">
	
		
			<path
   class="st0"
   d="m 2221.4356,129.18983 c -59.1,-82.299999 -146,-125.8999994 -251.1,-125.8999994 -105.2,0 -192,43.5000004 -251.1,125.8999994 -49.7,69.3 -77.1,162.4 -77.1,262.2 0,193.2 101.5,388.2 328.2,388.2 226.7,0 328.2,-195 328.2,-388.2 0,-99.8 -27.3,-192.9 -77.1,-262.2 z m -251.1,420.6 c -79.1,0 -87.7,-107.4 -87.7,-159.2 0,-51.3 8.7,-157.4 87.7,-157.4 79,0 87.7,106.1 87.7,157.4 -0.1,51.8 -8.7,159.2 -87.7,159.2 z"
   id="path11" />
			<path
   class="st0"
   d="m 2877.8356,129.18983 c -59.1,-82.299999 -145.9,-125.8999994 -251.1,-125.8999994 -105.2,0 -192,43.5000004 -251.1,125.8999994 -49.7,69.3 -77.1,162.4 -77.1,262.2 0,193.2 101.5,388.2 328.2,388.2 226.7,0 328.2,-195 328.2,-388.2 0.1,-99.8 -27.2,-192.9 -77.1,-262.2 0.1,0 0,0 0,0 z m -251.1,420.6 c -79.1,0 -87.7,-107.4 -87.7,-159.2 0,-51.3 8.7,-157.4 87.7,-157.4 79,0 87.7,106.1 87.7,157.4 0,51.8 -8.7,159.2 -87.7,159.2 z"
   id="path13" />
			<polygon
   class="st0"
   points="1663.6,760.3 1988.3,14 1326.3,14 1326.3,252.5 1633.4,252.5 1387.7,760.3 "
   id="polygon15"
   transform="translate(-884.96443,3.2898306)" />
			<path
   class="st0"
   d="m 1496.8356,372.28983 c 93.1,-34.3 155.8,-97.9 155.8,-170.9 0,-109.399999 -140.4,-197.9999994 -313.7,-197.9999994 -173.3,0 -313.7,88.7000004 -313.7,197.9999994 0,73 62.7,136.6 155.8,170.9 -102.5,36.8 -172.1,108.3 -172.1,190.5 0,119.8 147.8,216.9 330,216.9 182.3,0 330,-97.1 330,-216.9 0,-82.3 -69.6,-153.7 -172.1,-190.5 z m -157.9,-208.7 c 35.4,0 64,28.7 64,64 0,35.3 -28.7,64 -64,64 -35.4,0 -64,-28.7 -64,-64 0,-35.3 28.6,-64 64,-64 z m 0,439.2 c -42.3,0 -76.6,-34.3 -76.6,-76.6 0,-42.3 34.3,-76.6 76.6,-76.6 42.3,0 76.6,34.3 76.6,76.6 0,42.3 -34.3,76.6 -76.6,76.6 z"
   id="path17" />
		
	
	
		
			
			
			
			
			
			
		
	
</g>
<g
   aria-label=".io"
   id="text345"
   style="font-size:1024px;line-height:1.25;letter-spacing:-60px;stroke-width:5.33333;fill:#ffffff"><path
     d="m 2485.2292,708 q 0,-28 20.5,-48.5 20.5,-20.5 49,-20.5 28.5,0 49,20.5 20.5,20.5 20.5,49 0,29 -20.5,49.5 -20,20 -49,20 -29.5,0 -49.5,-20 -20,-20 -20,-50 z"
     style="font-family:Futura;-inkscape-font-specification:Futura;fill:#ffffff"
     id="path499" /><path
     d="m 2836.2292,277 v 487 h -112.5 V 277 Z m -129.5,-202.5 q 0,-29.5 21.5,-51 21.5,-21.5 51.5,-21.5 30.5,0 52,21.5 21.5,21 21.5,51.5 0,30.5 -21.5,52 -21,21.5 -51.5,21.5 -30.5,0 -52,-21.5 -21.5,-21.5 -21.5,-52.5 z"
     style="font-family:Futura;-inkscape-font-specification:Futura;fill:#ffffff"
     id="path501" /><path
     d="m 2895.7292,517 q 0,-105.5 75.5,-179.5 75.5,-74 184,-74 109,0 185,74.5 75,74.5 75,183 0,109.5 -75.5,183.5 -76,73.5 -186.5,73.5 -109.5,0 -183.5,-75 -74,-74 -74,-186 z m 115,2 q 0,73 39,115.5 40,43 105.5,43 66,0 105.5,-42.5 39.5,-42.5 39.5,-113.5 0,-71 -39.5,-113.5 -40,-43 -105.5,-43 -64.5,0 -104.5,43 -40,43 -40,111 z"
     style="font-family:Futura;-inkscape-font-specification:Futura;fill:#ffffff"
     id="path503" /></g></svg>
